<?xml version="1.0" standalone="no"?>
<!DOCTYPE svg PUBLIC "-//W3C//DTD SVG 20010904//EN"
 "http://www.w3.org/TR/2001/REC-SVG-20010904/DTD/svg10.dtd">
<svg version="1.0" xmlns="http://www.w3.org/2000/svg"
 width="1080.000000pt" height="1080.000000pt" viewBox="0 0 1080.000000 1080.000000"
 preserveAspectRatio="xMidYMid meet">
<metadata>
Created by potrace 1.14, written by Peter Selinger 2001-2017
</metadata>
<g transform="translate(0.000000,1080.000000) scale(0.100000,-0.100000)"
fill="#000000" stroke="none">
<path d="M4438 7406 c-1 -2 -37 -6 -79 -10 -42 -3 -102 -13 -135 -21 -66 -17
-206 -83 -244 -115 -162 -135 -229 -271 -235 -475 -5 -174 27 -285 120 -405
101 -131 309 -264 488 -312 l47 -12 -41 -76 c-88 -161 -341 -517 -428 -601
-36 -35 -159 -175 -161 -182 -1 -7 53 -84 229 -320 l66 -89 34 39 c18 21 48
54 65 73 239 264 516 675 675 1001 l42 87 88 1 c48 1 99 3 112 6 13 2 50 6 81
10 51 5 147 23 218 39 14 4 36 8 50 11 121 22 638 209 688 248 31 24 19 -8
-36 -105 -223 -387 -445 -877 -581 -1286 -71 -213 -111 -363 -151 -567 -12
-60 -23 -117 -25 -126 -2 -9 -6 -40 -10 -70 -4 -30 -8 -56 -10 -59 -17 -29
-27 -508 -12 -612 14 -103 63 -227 126 -320 90 -133 250 -245 396 -277 28 -7
61 -14 75 -17 85 -18 325 1 435 35 194 59 388 183 524 335 14 16 31 34 36 40
54 57 146 210 189 315 29 69 31 80 17 84 -9 3 -114 39 -235 81 -120 41 -222
73 -227 70 -5 -3 -9 -11 -9 -17 0 -20 -80 -169 -114 -212 -129 -166 -300 -258
-461 -251 -72 4 -115 25 -166 83 -71 81 -99 189 -94 354 21 642 334 1512 881
2452 106 180 242 401 326 527 39 58 81 121 94 141 l23 37 -174 121 -174 121
-118 -74 c-184 -115 -370 -215 -643 -345 -189 -91 -527 -209 -700 -246 -41 -9
-82 -18 -90 -20 -9 -2 -43 -6 -75 -10 -33 -4 -68 -9 -78 -11 -17 -3 -18 3 -11
74 28 307 -30 532 -175 680 -101 104 -209 156 -346 168 -33 3 -65 7 -72 9 -6
2 -13 2 -15 1z m51 -413 c70 -53 104 -151 103 -298 -1 -55 -3 -107 -5 -115 -2
-8 -7 -29 -11 -46 l-7 -32 -60 14 c-176 41 -264 88 -313 167 -25 41 -29 58
-29 116 0 57 4 77 27 115 15 26 44 58 65 71 69 46 174 49 230 8z"/>
</g>
</svg>
